<?xml version="1.0"?>
<svg xmlns="http://www.w3.org/2000/svg" height="512px" viewBox="0 0 384 384" width="512px" class=""><g><path d="m236.121094 113.414062-137.496094 45.832032c-11.3125 3.769531-18.625 13.921875-18.625 25.851562 0 11.925782 7.3125 22.070313 18.632812 25.847656l55.824219 18.605469 18.605469 55.832031c3.769531 11.304688 13.914062 18.617188 25.839844 18.617188 11.929687 0 22.074218-7.3125 25.851562-18.632812l45.832032-137.496094c3.277343-9.847656.757812-20.527344-6.585938-27.871094s-18.039062-9.878906-27.878906-6.585938zm-37.21875 148.304688-19.160156-57.472656-57.46875-19.15625 114.933593-38.3125zm0 0" data-original="#000000" class="active-path" data-old_color="#E9DCDC" fill="#EDE6E6"/><path d="m192 0c-105.871094 0-192 86.128906-192 192s86.128906 192 192 192 192-86.128906 192-192-86.128906-192-192-192zm0 352c-88.222656 0-160-71.777344-160-160s71.777344-160 160-160 160 71.777344 160 160-71.777344 160-160 160zm0 0" data-original="#000000" class="active-path" data-old_color="#E9DCDC" fill="#EDE6E6"/></g> </svg>
